<svg width="1144" height="505" viewBox="0 0 1144 505" fill="none" xmlns="http://www.w3.org/2000/svg">
<g clip-path="url(#clip0_1_8)">
<path d="M18.9063 505C20.6329 505 22.3596 503.273 24.0863 499.82C25.8129 496.367 26.6763 490.693 26.6763 482.8V305.2C26.6763 297.307 25.8129 291.757 24.0863 288.55C22.3596 285.097 20.6329 283.247 18.9063 283H234.986V294.1L242.386 337.02C236.22 334.307 225.366 331.47 209.826 328.51C194.286 325.303 175.54 323.7 153.586 323.7H98.8263C91.4263 323.7 86.9863 324.317 85.5063 325.55C84.2729 326.537 83.6563 329.62 83.6563 334.8V362.18C83.6563 367.607 84.2729 370.813 85.5063 371.8C86.9863 372.787 91.3029 373.28 98.4563 373.28H151.736C166.043 373.28 177.513 372.54 186.146 371.06C195.026 369.333 200.823 367.607 203.536 365.88C202.55 370.567 201.44 375.993 200.206 382.16C198.973 388.327 197.986 394.247 197.246 399.92C196.506 405.593 196.136 410.28 196.136 413.98H98.4563C91.3029 413.98 86.9863 414.473 85.5063 415.46C84.2729 416.2 83.6563 419.407 83.6563 425.08V482.8C83.6563 490.94 84.5196 496.737 86.2463 500.19C87.9729 503.397 89.6996 505 91.4263 505H18.9063ZM380.437 508.7C338.01 508.7 307.3 498.587 288.307 478.36C269.56 457.887 260.187 429.397 260.187 392.89C260.187 369.457 264.257 349.353 272.397 332.58C280.783 315.56 293.733 302.487 311.247 293.36C329.007 283.987 352.07 279.3 380.437 279.3H391.907C419.78 279.3 442.35 283.863 459.617 292.99C477.13 302.117 489.957 315.19 498.097 332.21C506.237 349.23 510.307 369.457 510.307 392.89C510.307 429.397 500.933 457.887 482.187 478.36C463.44 498.587 433.347 508.7 391.907 508.7H380.437ZM384.137 467.63H388.207C410.9 467.63 427.55 461.957 438.157 450.61C448.763 439.263 454.067 420.023 454.067 392.89C454.067 366.497 448.64 347.75 437.787 336.65C426.933 325.55 410.407 320 388.207 320H384.137C360.95 320 343.807 325.797 332.707 337.39C321.853 348.737 316.427 367.237 316.427 392.89C316.427 420.023 322.1 439.263 333.447 450.61C344.793 461.957 361.69 467.63 384.137 467.63ZM543.555 505C545.281 505 547.008 503.273 548.735 499.82C550.461 496.367 551.325 490.693 551.325 482.8V305.2C551.325 297.307 550.461 291.757 548.735 288.55C547.008 285.097 545.281 283.247 543.555 283H616.075C614.348 283 613.855 284.727 614.595 288.18C615.581 291.633 619.651 297.553 626.805 305.94C629.025 308.407 633.341 313.463 639.755 321.11C646.415 328.51 654.061 337.39 662.695 347.75C671.575 357.863 680.701 368.47 690.075 379.57C699.695 390.67 708.698 401.03 717.085 410.65H717.825V305.2C717.825 297.307 716.961 291.757 715.235 288.55C713.508 285.097 711.781 283.247 710.055 283H782.575C780.848 283 779.121 284.727 777.395 288.18C775.668 291.633 774.805 297.43 774.805 305.57V482.8C774.805 490.693 775.668 496.367 777.395 499.82C779.121 503.273 780.848 505 782.575 505H718.935C720.415 505 720.538 503.273 719.305 499.82C718.318 496.367 714.495 490.447 707.835 482.06C703.395 476.387 697.351 468.863 689.705 459.49C682.058 449.87 673.548 439.387 664.175 428.04C654.801 416.693 645.305 405.223 635.685 393.63C626.311 382.037 617.555 371.43 609.415 361.81H608.305V482.8C608.305 490.693 609.168 496.367 610.895 499.82C612.621 503.273 614.348 505 616.075 505H543.555ZM890.649 505C892.376 505 894.103 503.273 895.829 499.82C897.556 496.367 898.419 490.693 898.419 482.8V334.8C898.419 329.373 897.803 326.167 896.569 325.18C895.336 324.193 891.019 323.7 883.619 323.7H856.609C842.303 323.7 830.709 325.303 821.829 328.51C813.196 331.47 807.523 334.307 804.809 337.02L812.209 294.1V283H1041.61V294.1L1049.01 337.02C1046.3 334.307 1040.5 331.47 1031.62 328.51C1022.99 325.303 1011.52 323.7 997.209 323.7H970.569C962.923 323.7 958.483 324.193 957.249 325.18C956.016 326.167 955.399 329.373 955.399 334.8V482.8C955.399 490.693 956.263 496.367 957.989 499.82C959.716 503.273 961.443 505 963.169 505H890.649Z" fill="white"/>
<path d="M123.589 236.7C90.0422 236.7 63.5256 227.45 44.0389 208.95C24.7989 190.203 15.1789 161.467 15.1789 122.74C15.1789 100.047 19.4956 80.0667 28.1289 62.8C36.7622 45.2867 50.4522 31.72 69.1989 22.1C87.9456 12.2333 112.242 7.29999 142.089 7.29999C165.522 7.29999 184.886 8.53333 200.179 11C215.719 13.4667 226.326 15.9333 231.999 18.4V29.5L239.399 70.2C232.739 65.2667 221.022 60.3333 204.249 55.4C187.476 50.4667 167.002 48 142.829 48C117.916 48 99.7856 54.29 88.4389 66.87C77.0922 79.2033 71.4189 97.8267 71.4189 122.74C71.4189 149.627 76.4756 168.497 86.5889 179.35C96.7022 190.203 114.092 195.63 138.759 195.63C157.012 195.63 170.332 192.793 178.719 187.12C187.106 181.447 191.299 174.293 191.299 165.66V159.74C191.299 154.067 190.806 150.86 189.819 150.12C189.079 149.133 185.872 148.64 180.199 148.64H168.359C159.972 148.64 152.819 149.503 146.899 151.23C140.979 152.957 136.786 154.683 134.319 156.41L138.019 119.78V108.68H254.569C252.842 108.927 251.116 110.777 249.389 114.23C247.909 117.437 247.169 122.987 247.169 130.88V210.8C247.169 218.693 247.909 224.367 249.389 227.82C251.116 231.273 252.842 233 254.569 233H191.299V228.19L192.039 217.83L191.299 217.09C188.832 221.037 182.296 225.353 171.689 230.04C161.329 234.48 145.296 236.7 123.589 236.7ZM272.442 233C273.675 233 275.525 231.273 277.992 227.82C280.705 224.367 283.788 218.57 287.242 210.43C288.968 206.73 291.682 200.44 295.382 191.56C299.328 182.433 303.768 171.95 308.702 160.11C313.882 148.023 319.185 135.443 324.612 122.37C330.285 109.297 335.588 96.7167 340.522 84.63C345.702 72.5433 350.142 61.9367 353.842 52.81C357.788 43.6833 360.502 37.1467 361.982 33.2C365.188 25.3067 366.915 19.6333 367.162 16.18C367.408 12.7267 366.915 11 365.682 11H446.342C445.355 11 444.985 12.7267 445.232 16.18C445.478 19.3867 447.205 25.06 450.412 33.2C451.892 37.1467 454.482 43.6833 458.182 52.81C461.882 61.69 466.198 72.1733 471.132 84.26C476.065 96.1 481.245 108.557 486.672 121.63C492.098 134.703 497.278 147.283 502.212 159.37C507.145 171.21 511.585 181.693 515.532 190.82C519.478 199.947 522.315 206.483 524.042 210.43C527.742 218.57 531.318 224.367 534.772 227.82C538.225 231.273 540.815 233 542.542 233H458.552C460.525 232.753 462.128 230.903 463.362 227.45C464.842 223.75 464.842 218.077 463.362 210.43C463.115 208.703 462.868 207.347 462.622 206.36C462.375 205.127 461.882 203.4 461.142 201.18C460.155 197.48 459.045 194.89 457.812 193.41C456.578 191.683 454.482 190.697 451.522 190.45C448.808 190.203 444.245 190.08 437.832 190.08H374.192C367.532 190.08 362.598 190.327 359.392 190.82C356.185 191.067 353.965 191.93 352.732 193.41C351.498 194.89 350.512 197.357 349.772 200.81C349.525 202.043 349.155 203.647 348.662 205.62C348.415 207.593 348.168 209.197 347.922 210.43C346.195 218.323 345.702 223.997 346.442 227.45C347.428 230.903 348.662 232.753 350.142 233H272.442ZM383.812 149.38H427.102C434.255 149.38 438.202 148.763 438.942 147.53C439.682 146.297 439.312 143.583 437.832 139.39C433.392 128.783 429.075 118.053 424.882 107.2C420.935 96.1 417.358 85.74 414.152 76.12C410.945 66.2533 408.355 58.1133 406.382 51.7H405.642C402.188 60.8267 398.612 70.4467 394.912 80.56C391.212 90.6733 387.758 100.047 384.552 108.68C381.345 117.313 378.755 124.467 376.782 130.14C374.808 135.567 373.822 138.28 373.822 138.28C372.095 142.227 371.478 145.063 371.972 146.79C372.465 148.517 376.412 149.38 383.812 149.38ZM561.955 233C563.682 233 565.408 231.273 567.135 227.82C568.862 224.367 569.725 218.693 569.725 210.8V33.2C569.725 25.3067 568.862 19.7567 567.135 16.55C565.408 13.0967 563.682 11.2467 561.955 11H649.275C647.795 11.2467 647.055 13.22 647.055 16.92C647.302 20.3733 649.398 26.0466 653.345 33.94C655.565 37.8867 658.895 44.67 663.335 54.29C668.022 63.6633 673.202 74.64 678.875 87.22C684.795 99.5533 690.838 112.38 697.005 125.7C703.172 138.773 708.968 151.107 714.395 162.7H714.765C720.438 151.353 726.358 139.143 732.525 126.07C738.938 112.997 745.105 100.293 751.025 87.96C757.192 75.38 762.495 64.28 766.935 54.66C771.622 44.7933 774.828 37.64 776.555 33.2C780.008 25.3067 781.858 19.6333 782.105 16.18C782.352 12.7267 781.858 11 780.625 11H867.945C866.218 11 864.492 12.7267 862.765 16.18C861.038 19.6333 860.175 25.43 860.175 33.57V210.8C860.175 218.693 861.038 224.367 862.765 227.82C864.492 231.273 866.218 233 867.945 233H796.535C798.262 233 799.865 231.273 801.345 227.82C803.072 224.367 803.935 218.693 803.935 210.8V90.92H803.195C798.508 100.293 793.205 110.653 787.285 122C781.612 133.1 775.938 144.323 770.265 155.67C764.838 167.017 759.782 177.5 755.095 187.12C750.408 196.74 746.708 204.633 743.995 210.8C740.542 218.447 738.692 223.997 738.445 227.45C738.445 230.903 739.062 232.753 740.295 233H688.495C689.728 232.753 690.222 230.903 689.975 227.45C689.975 223.997 688.248 218.447 684.795 210.8C682.328 205.127 678.875 197.603 674.435 188.23C669.995 178.61 665.062 168.127 659.635 156.78C654.208 145.433 648.658 134.087 642.985 122.74C637.558 111.147 632.502 100.54 627.815 90.92H626.705V210.8C626.705 218.693 627.568 224.367 629.295 227.82C631.022 231.273 632.748 233 634.475 233H561.955ZM904.855 233C906.582 233 908.309 231.273 910.035 227.82C911.762 224.367 912.625 218.693 912.625 210.8V33.2C912.625 25.3067 911.762 19.7567 910.035 16.55C908.309 13.0967 906.582 11.2467 904.855 11H1120.94V22.1L1128.34 65.02C1122.17 62.3067 1111.32 59.47 1095.78 56.51C1080.24 53.3033 1061.49 51.7 1039.54 51.7H984.775C977.375 51.7 972.935 52.3167 971.455 53.55C970.222 54.5367 969.605 57.62 969.605 62.8V90.18C969.605 95.6067 970.222 98.8133 971.455 99.8C972.935 100.787 977.252 101.28 984.405 101.28H1037.69C1051.99 101.28 1063.46 100.54 1072.1 99.06C1080.98 97.3333 1086.77 95.6067 1089.49 93.88C1088.5 98.5667 1087.39 103.993 1086.16 110.16C1084.92 116.327 1083.94 122.247 1083.2 127.92C1082.46 133.593 1082.09 138.28 1082.09 141.98H984.405C977.252 141.98 972.935 142.473 971.455 143.46C970.222 144.2 969.605 147.407 969.605 153.08V180.46C969.605 186.133 970.222 189.463 971.455 190.45C972.689 191.437 977.005 191.93 984.405 191.93H1084.31C1098.61 191.93 1110.08 190.327 1118.72 187.12C1127.6 183.667 1133.39 180.337 1136.11 177.13L1128.71 221.53V233H904.855Z" fill="#BF232C"/>
</g>
<defs>
<clipPath id="clip0_1_8">
<rect width="1144" height="505" fill="white"/>
</clipPath>
</defs>
</svg>
